<?xml version="1.0" encoding="UTF-8"?>
<svg id="Layer_1" data-name="Layer 1" xmlns="http://www.w3.org/2000/svg" viewBox="0 0 296.79 213.88">
  <defs>
    <style>
      .cls-1 {
        fill: #fff;
        stroke-width: 0px;
      }
    </style>
  </defs>
  <g id="agZrUU.tif">
    <g>
      <path class="cls-1" d="M0,0h296.79v213.88H0V0ZM116.59,161.91c27.92-30.75,55.4-59.94,81.53-90.29,10.96-12.73,17.24-9.02,26.13.99,11.48,12.92,22.66,26.1,34,39.14,5.85,6.72,11.78,13.37,19.05,21.61V19.63H19.89v158.03c17.89-11.87,34.64-22.43,50.73-33.91,6.51-4.64,11.25-4.3,17.42.04,8.96,6.3,18.48,11.8,28.55,18.13Z"/>
      <path class="cls-1" d="M101.93,61.69c.11,14.06-11.96,26.19-25.82,25.96-13.41-.23-25.21-12.07-25.39-25.49-.19-13.97,11.83-25.83,26.02-25.69,13.83.14,25.09,11.41,25.19,25.22Z"/>
    </g>
  </g>
</svg>