<?xml version="1.0" encoding="UTF-8"?>
<svg id="Layer_1" data-name="Layer 1" xmlns="http://www.w3.org/2000/svg" viewBox="0 0 315.35 336.8">
  <defs>
    <style>
      .cls-1 {
        fill: #fff;
        stroke-width: 0px;
      }
    </style>
  </defs>
  <path class="cls-1" d="M315.35,157.22c-.29-52.7-26.9-102.09-70.82-131.37C200.51-3.49,143.25-7.89,94.83,12.83,47.8,32.94,12.2,76.79,2.75,127.06c-9.71,51.63,6.62,105.66,44.36,142.54,45.17,44.16,112.34,56.06,170.37,33.01,11.73,10.41,23.47,20.81,35.2,31.22,6.9,6.12,20.6,2.5,19.8-8.19-1.4-18.8-2.79-37.59-4.19-56.39,29.87-29.58,46.79-69.94,47.06-112.03ZM153.86,257.81c-11.21,0-20.42-9.2-20.42-20.38s9.22-20.38,20.42-20.38,20.43,9.2,20.43,20.38-9.22,20.38-20.43,20.38ZM173.29,180.01c-5.98,8.69-3.99,20.88-20.43,20.88-10.71,0-15.94-8.7-15.94-16.65,0-29.58,43.59-36.29,43.59-60.65,0-13.42-8.96-21.38-23.91-21.38-31.88,0-19.43,32.81-43.59,32.81-8.72,0-16.19-5.22-16.19-15.16,0-24.36,27.9-45.98,58.29-45.98,31.88,0,63.27,14.67,63.27,49.71,0,32.31-37.11,44.74-45.08,56.42Z"/>
</svg>