<?xml version="1.0" encoding="UTF-8"?>
<svg id="Layer_1" data-name="Layer 1" xmlns="http://www.w3.org/2000/svg" viewBox="0 0 320.6 321.35">
  <defs>
    <style>
      .cls-1 {
        fill: #fff;
        fill-rule: evenodd;
        stroke-width: 0px;
      }
    </style>
  </defs>
  <path class="cls-1" d="M300.56,60.25h-53.97l41.75-25.3c12.67-7.68,1.13-26.15-10.88-18.88l-47.31,28.66c.18-1.49.28-3.02.28-4.56C230.43,17.98,212.48,0,190.35,0c-12.04,0-22.71,5.43-30.06,13.86C152.95,5.43,142.28,0,130.24,0c-23.87,0-42.64,21-39.8,44.73l-47.31-28.67c-12-7.27-23.55,11.2-10.88,18.88l41.75,25.3H20.04c-11.06,0-20.04,9-20.04,20.09v54.24c0,11.04,8.9,19.98,19.9,20.06h280.78c11-.07,19.91-9.01,19.91-20.06v-54.24c0-11.08-8.98-20.08-20.04-20.08ZM130.24,60.25c-11.06,0-20.04-9-20.04-20.08s8.98-20.09,20.04-20.09,20.04,9,20.04,20.09c0,11.08-8.97,20.08-20.04,20.08ZM190.35,60.25c-11.06,0-20.04-9-20.04-20.08s8.98-20.09,20.04-20.09c11.06,0,20.04,9,20.04,20.09s-8.98,20.08-20.04,20.08Z"/>
  <path class="cls-1" d="M20.04,169.55v111.63c0,22.18,17.95,40.17,40.07,40.17h200.37c22.13,0,40.07-17.98,40.07-40.17v-111.63H20.04Z"/>
</svg>