<?xml version="1.0" encoding="UTF-8"?>
<svg id="Layer_1" data-name="Layer 1" xmlns="http://www.w3.org/2000/svg" viewBox="0 0 304.07 348.81">
  <defs>
    <style>
      .cls-1 {
        fill: #fff;
        stroke-width: 0px;
      }
    </style>
  </defs>
  <path class="cls-1" d="M202.63,125.22l-32.01-38.67c-8.32-10.05-20.4-15.99-33.36-16.48,9.88-11.56,13.38-28.18,7.01-43.81-5.51-13.53-17.88-23.42-32.29-25.71-26.4-4.19-49.27,16.24-49.27,41.92,0,10.24,3.74,20.01,10.22,27.6-12.96.49-25.04,6.43-33.36,16.48L7.56,125.22c-9.92,11.98-10.09,29.29-.42,41.47l18.45,23.23c2.5,3.15,6.19,4.95,10.14,4.95h.09c3.56-.01,6.44-2.91,6.44-6.47v-56.49c0-3.58,2.9-6.49,6.47-6.49h0c3.58,0,6.47,2.9,6.47,6.49v203.82c0,7.22,5.84,13.08,13.05,13.08h3.19c5.86,0,11.01-3.92,12.58-9.58l21.07-75.99,21.07,75.99c1.56,5.64,6.74,9.58,12.58,9.58h3.19c7.21,0,13.05-5.86,13.05-13.08v-197.18s.02-.06.02-.09v-6.56c0-3.58,2.9-6.49,6.47-6.49h0c3.58,0,6.47,2.9,6.47,6.49v56.42c0,3.6,2.91,6.53,6.51,6.54h0c3.94,0,7.64-1.8,10.14-4.95l18.45-23.23c9.67-12.18,9.5-29.49-.42-41.47Z"/>
  <path class="cls-1" d="M289.83,183.99s-31.2-10.42-2.08-36.27c29.12-25.85,10.4-29.6,10.4-29.6,0,0-47.43-4.59-20.8-42.1,26.63-37.52,13.31-35.02,13.31-35.02-45.9-11.3-125.22,19.65-135.37,23.73,11,2.35,20.97,8.33,28.3,17.19l32.01,38.67c11.35,13.71,11.55,33.77.48,47.71l-11.7,14.73s-2.09,3.77-6.54,8.23l-.21.27c-1.48,1.87-3.28,3.36-5.28,4.49-4.82,3.58-11.21,6.91-19.27,8.57-.44.18-.8.29-1.01.23l5.41,14.17s7.49,23.76,45.35,42.94c37.86,19.18,29.12-15.42,29.12-15.42,0,0-.83-49.61,28.71-48.36,29.54,1.25,9.15-14.17,9.15-14.17Z"/>
</svg>