<?xml version="1.0" encoding="UTF-8"?>
<svg id="Layer_1" data-name="Layer 1" xmlns="http://www.w3.org/2000/svg" viewBox="0 0 354.43 342.87">
  <defs>
    <style>
      .cls-1 {
        fill: #fff;
        stroke-width: 0px;
      }
    </style>
  </defs>
  <path class="cls-1" d="M278.65,0c-41.84,0-75.78,34.14-75.78,75.88,0,3.64.32,7.11.79,10.75l-20.37,7.11-.79.32c-8.05-15.02-19.73-27.51-33.79-36.2-1.11-.79-2.21-1.58-3.32-2.06-14.37-8.38-31.1-13.12-48.31-13.12C43.57,42.68,0,86.15,0,139.74c0,30.19,13.74,57.07,35.37,74.93,1.74,1.58,3.47,2.85,5.21,3.95,15.95,11.38,35.37,18.18,56.52,18.18,13.89,0,27.79-3.16,40.57-9.01l.16.16,16.89,18.81c-9.16,12.01-13.42,26.87-11.84,42.21,2.84,28.3,25.26,50.9,53.52,53.59,2.05.32,4.1.32,6,.32,16.89,0,33.15-7.11,44.36-19.76,11.53-12.65,16.89-29.09,15.31-46.32-2.84-28.14-25.42-50.74-53.52-53.59-11.84-1.11-23.68,1.26-34.1,6.8l-14.84-16.28c2.53-2.21,5.05-4.58,7.42-6.95.32-.32.63-.63.79-.95,2.05-2.21,3.95-4.43,5.68-6.64.63-.79,1.26-1.42,1.58-2.21,1.74-2.37,3.32-4.74,4.74-7.11q.32-.16.16-.32c1.89-3,3.47-6.01,4.89-9.17,1.58-3.16,2.84-6.32,3.95-9.64,1.11-3.32,2.05-6.64,2.84-10.12.79-3.32,1.42-6.8,1.74-10.27.47-3.48.63-7.11.63-10.59,0-1.74,0-3.64-.16-5.37-.32-5.37-1.11-10.75-2.37-16.12l.47-.16,19.58-6.96c13.1,24.98,38.84,40.63,67.1,40.63,41.84,0,75.78-33.99,75.78-75.88,0-41.73-33.94-75.88-75.78-75.88Z"/>
</svg>