<?xml version="1.0" encoding="UTF-8"?>
<svg id="Layer_1" data-name="Layer 1" xmlns="http://www.w3.org/2000/svg" viewBox="0 0 335.06 325.16">
  <defs>
    <style>
      .cls-1 {
        fill: #fff;
        stroke-width: 0px;
      }
    </style>
  </defs>
  <polygon class="cls-1" points="65.88 170.37 61.03 170.49 61.03 170.5 65.88 170.37"/>
  <g>
    <path class="cls-1" d="M75.51,87.99c3.13-4.02,6.42-7.91,10.05-11.53,23.13-23.13,53.89-35.87,86.62-35.88,32.84,0,63.65,12.75,86.78,35.88,22.33,22.35,34.96,51.9,35.77,83.5,13.42-2.2,26.87-4.36,40.32-6.52-2.36-39.93-19.09-77.26-47.45-105.64C256.8,16.97,215.84,0,172.28,0h-.02c-43.58,0-84.54,16.97-115.35,47.8-3.63,3.62-7.04,7.39-10.28,11.3l-29.76-29.77L0,143.51l113.84-17.18-38.32-38.34Z"/>
    <path class="cls-1" d="M254.79,253.78c-22.4,19.9-50.95,30.8-81.19,30.8-32.83,0-63.65-12.74-86.78-35.88-21.05-21.09-32.91-46.18-35.29-74.61l-29.31,3.28-.39.04h-.4c-2.29.09-5.3.21-8.27.57-.64.08-1.27.17-1.91.26,3.74,37.44,20.27,72.45,46.92,99.12,30.81,30.83,71.78,47.81,115.35,47.81,41.08,0,79.85-15.11,109.97-42.68l29.38,29.4,17.17-113.89-114.14,16.88,38.89,38.91Z"/>
  </g>
</svg>