<?xml version="1.0" encoding="UTF-8"?>
<svg id="Layer_1" data-name="Layer 1" xmlns="http://www.w3.org/2000/svg" viewBox="0 0 384 335.11">
  <defs>
    <style>
      .cls-1 {
        fill: #fff;
        stroke-width: 0px;
      }
    </style>
  </defs>
  <path class="cls-1" d="M327.79,159.07h0c-4.22-4.21-11.1-4.21-15.34,0-4.21,4.23-4.21,11.1,0,15.32l29.45,29.39c2.12,2.09,4.9,3.14,7.67,3.14,2.78,0,5.57-1.05,7.7-3.16,4.21-4.23,4.21-11.08,0-15.31l-29.47-29.39Z"/>
  <path class="cls-1" d="M373.16,119.42h-.05s-41.67.21-41.67.21c-2.91.02-5.63,1.16-7.66,3.21-2.04,2.05-3.15,4.8-3.13,7.68.02,2.9,1.16,5.61,3.22,7.64,2.04,2.02,4.75,3.12,7.62,3.12h.06s41.69-.21,41.69-.21c2.9-.03,5.61-1.17,7.65-3.23,2.04-2.05,3.15-4.8,3.12-7.66-.03-5.95-4.89-10.77-10.84-10.77Z"/>
  <path class="cls-1" d="M320.47,104.25c2.91,0,5.64-1.14,7.69-3.21l29.45-29.35c4.23-4.23,4.23-11.08,0-15.31-2.06-2.05-4.79-3.18-7.69-3.18h-.04c-2.9,0-5.61,1.14-7.62,3.18l-29.49,29.39c-4.2,4.25-4.19,11.1,0,15.27,2.05,2.07,4.78,3.21,7.69,3.21Z"/>
  <path class="cls-1" d="M276.34,0h-11.42c-8.67,0-16.26,5.66-18.82,13.77l-105.94,51.32c-3.82,1.85-8.09,2.83-12.32,2.83H46.87c-11.17,0-21.74,5.45-28.26,14.58-3.18,4.42-5.26,9.53-6.07,14.93C5.02,100.83,0,108.43,0,116.81v22.09c0,8.2,4.84,15.67,12.12,19.19v1.1c0,9.23,3.62,17.91,10.2,24.49,1.31,1.29,2.73,2.47,4.21,3.52,5.74,4.14,12.46,6.4,19.6,6.56l-.33,115.43c-.04,14.19,11.49,25.8,25.73,25.89l13.6.03c6.88,0,13.35-2.66,18.2-7.49,4.9-4.87,7.61-11.34,7.61-18.19l.24-86.84c1.23-.72,2.35-1.6,3.36-2.62,3.36-3.37,5.2-7.82,5.2-12.55v-13.87s8.18-.02,8.18-.02h.1c4.21,0,8.42.97,12.19,2.78l105.77,51.25c2.36,8.35,10.12,14.38,18.96,14.38h11.42c10.89,0,19.74-8.84,19.74-19.69V19.71C296.08,8.84,287.23,0,276.34,0Z"/>
</svg>