<?xml version="1.0" encoding="UTF-8"?>
<svg id="Layer_1" data-name="Layer 1" xmlns="http://www.w3.org/2000/svg" viewBox="0 0 297.48 259.22">
  <defs>
    <style>
      .cls-1 {
        fill: #fff;
        stroke-width: 0px;
      }
    </style>
  </defs>
  <g id="_6GokDn.tif" data-name="6GokDn.tif">
    <path class="cls-1" d="M0,230.53V28.68C9.01,6.16,26.13-.31,49.49.01c68.86.96,137.74.31,206.62.34,27.2.01,41.3,14.15,41.32,41.54.06,58.06.05,116.12.02,174.19-.02,29.01-13.68,42.75-42.53,42.76-68.47.04-136.96-.59-205.42.38-23.36.33-40.48-6.19-49.51-28.68ZM19.25,67.03c-.22,4.38-.5,7.52-.51,10.65-.03,46.84-.07,93.68,0,140.51.02,16.5,5.87,22.42,22.26,22.43,71.66.06,143.32.05,214.97,0,17.94-.01,23.24-5.46,23.26-23.85.05-46.04,0-92.07,0-138.11,0-3.8,0-7.59,0-11.64H19.25ZM220.94,33.47c-6.57-4.67-10.89-9.98-13.86-9.31-4.01.91-6.98,6.42-10.39,9.95,3.44,3.11,6.69,8.41,10.36,8.71,3.46.29,7.36-4.68,13.89-9.35ZM249.74,32.8c-6.79-4.35-11.38-9.44-14.29-8.62-3.96,1.11-6.64,6.76-9.87,10.46,3.59,2.94,7.11,8.06,10.79,8.18,3.47.11,7.11-5.04,13.37-10.02ZM278.56,32.89c-6.75-4.4-11.28-9.53-14.21-8.74-3.97,1.08-6.71,6.69-9.98,10.35,3.56,2.97,7.03,8.13,10.71,8.28,3.47.14,7.16-4.98,13.47-9.9Z"/>
  </g>
  <g id="d7Hsfi.tif">
    <path class="cls-1" d="M144.81,164.73h-37.44c21.52-26.24,42.7-52.07,63.88-77.9.13.07.26.15.39.22-6.31,18.29-12.62,36.59-19.04,55.22h37.51c-21.6,26.35-42.77,52.17-63.95,78-.14-.07-.28-.14-.42-.2,6.31-18.31,12.62-36.61,19.07-55.33Z"/>
  </g>
</svg>