<?xml version="1.0" encoding="UTF-8"?>
<svg id="Layer_1" data-name="Layer 1" xmlns="http://www.w3.org/2000/svg" viewBox="0 0 369.38 261.03">
  <defs>
    <style>
      .cls-1 {
        fill: #fff;
        stroke-width: 0px;
      }
    </style>
  </defs>
  <path class="cls-1" d="M343.75,0H25.64C11.5,0,0,11.48,0,25.59c0,12.7,9.29,23.12,21.72,25.07l.22.28h0l114.53,145.01v54.52c0,5.83,4.74,10.56,10.58,10.56h75.27c5.84,0,10.58-4.73,10.58-10.56v-54.52l114.53-145.01h0l.23-.28c12.43-1.95,21.72-12.37,21.72-25.07,0-14.11-11.5-25.59-25.64-25.59ZM172.83,179.18l10.26-59.02-43.74,2.3,63.2-90.95-10.26,59.02,43.74-2.3-63.2,90.95Z"/>
</svg>