<svg width="12" height="12" fill="none" xmlns="http://www.w3.org/2000/svg">
    <path
        d="M8.417 9.588a.5.5 0 00-.267-.077H2.98C2.17 9.51 1.5 8.84 1.5 8V3c0-.842.67-1.51 1.48-1.51h7.04c.81 0 1.48.668 1.48 1.51v8.44a.061.061 0 01-.007.032.056.056 0 01-.04.028h-.003L8.417 9.588z"
        stroke="currentColor" strokeLinecap="round" strokeLinejoin="round"></path>
    <path fillRule="evenodd" clipRule="evenodd"
        d="M4.502 5.632l-.013-.01a.615.615 0 00-.865.13.637.637 0 00.125.883c.069.053.143.098.218.142.126.073.306.166.538.257a5.448 5.448 0 001.997.358c.86 0 1.532-.175 1.997-.358a3.97 3.97 0 00.538-.257c.074-.043.146-.088.214-.139l.002-.001a.648.648 0 00.127-.885.615.615 0 00-.87-.126l.002-.001.001-.001.002-.001-.013.009-.081.05a2.65 2.65 0 01-.37.176 4.223 4.223 0 01-1.549.273 4.22 4.22 0 01-1.549-.273 2.743 2.743 0 01-.45-.226zm-.011-.008h.001l-.003-.001h.002z"
        fill="currentColor"></path>
</svg>