<?xml version="1.0" encoding="UTF-8"?><svg id="Layer_1" xmlns="http://www.w3.org/2000/svg" viewBox="0 0 592.86 587.67"><defs><style>.cls-1{fill:#fff;}</style></defs><path class="cls-1" d="m592.84,224.15c0,64.53.06,129.06-.05,193.58-.02,12.72-.25,25.47-1.26,38.14-1.4,17.6-4.25,35.02-10.36,51.69-4.37,11.94-10.41,22.98-18.57,32.86-9.73,11.77-21.51,20.85-35.24,27.32-10.16,4.79-20.63,8.84-31.77,10.95-9.41,1.79-18.74,4.02-28.17,5.71-4.81.86-9.75,1.08-14.64,1.38-8.79.53-17.58.9-26.38,1.33-3.64.18-7.27.52-10.91.52-79.49.03-158.99.07-238.48-.03-10.31-.01-20.65-.38-30.93-1.24-9.7-.81-19.36-2.31-28.98-3.84-7.9-1.25-15.87-2.47-23.54-4.65-8.51-2.43-16.84-5.63-25.02-9.04-13.83-5.75-25.75-14.37-35.72-25.55-7.42-8.31-13.25-17.62-17.86-27.85-5.32-11.82-8.17-24.27-10.77-36.81-1.14-5.49-1.62-11.15-2.07-16.75-4.04-49.59-.87-99.27-1.87-148.9-.04-1.73-.16-3.47-.1-5.2.5-13.33,1.49-26.59,3.8-39.77,2.76-15.74,6.46-31.16,14.49-45.1,3.83-6.64,8.56-12.79,13.19-18.93,6.11-8.1,14.2-14.03,22.65-19.43,11.87-7.59,24.78-12.85,38.36-16.46,7.21-1.91,14.47-3.71,21.8-5.07,6.88-1.27,13.85-2.12,20.82-2.72,10.02-.87,20.08-1.42,30.13-1.99,6.45-.37,12.91-.74,19.37-.75,67.56-.05,135.13,0,202.69-.07,9.24,0,14.18,5.61,14.12,14.1-.16,22.01-.17,44.03,0,66.05.07,8.05-5.08,14.19-13.95,14.16-62.03-.25-124.07-.11-186.1-.12-11.17,0-22.27.41-33.35,2.16-8.69,1.37-17.12,3.2-25.07,7.06-14.34,6.95-22.81,18.6-26.38,33.78-1.72,7.3-2.73,14.84-3.26,22.32-.68,9.57-.7,19.2-.73,28.81-.09,24.94-.16,49.89.02,74.83.09,12.49,1.87,24.85,6.02,36.66,4.49,12.78,12.82,22.34,25.59,27.64,8.69,3.6,17.45,6.79,27.01,7.15,11.07.42,22.14,1.34,33.21,1.37,59.11.14,118.21.07,177.32.06,8.89,0,17.81.33,26.67-.19,14.41-.86,28.8-2.34,41.95-9.05,12.19-6.22,20.47-15.8,24.7-28.96,2.41-7.5,4.06-15.08,4.46-22.91.62-12.03,1.55-24.06,1.57-36.1.11-125.91.17-251.82-.1-377.73C481.14,7.37,489.54-.06,499.84,0c25.05.15,50.1-.04,75.16.15,3.5.03,7.2.87,10.44,2.22,4.49,1.87,5.99,6.35,6.78,10.74.6,3.36.6,6.86.6,10.3.03,66.91.02,133.83.02,200.74Z"/></svg>